<svg width="75" height="58" viewBox="0 0 75 58" fill="none" xmlns="http://www.w3.org/2000/svg">
<g clip-path="url(#clip0_76_1309)">
<path d="M14.5841 0H24.5855C24.9098 0.0688411 25.184 0.327944 25.2562 0.652636C25.3383 0.953477 25.2318 1.25649 25.1672 1.5492C24.5687 4.12234 23.9632 6.69385 23.369 9.26807C23.3017 9.30548 23.2343 9.34234 23.1654 9.37649L23.1241 9.39437C23.1154 9.39817 23.098 9.40576 23.0899 9.40955C22.9704 9.46159 22.852 9.51417 22.7331 9.56675C22.7135 9.57596 22.6744 9.59493 22.6543 9.60469L22.6299 9.61553C22.6255 9.6177 22.6169 9.6215 22.6125 9.62312C22.4892 9.67462 22.3659 9.72611 22.2448 9.78249C22.2416 9.78411 22.2345 9.78736 22.2313 9.78899L22.1389 9.83181C22.1351 9.83398 22.1264 9.83832 22.1221 9.83994L22.026 9.88548C22.0064 9.89632 21.9673 9.91746 21.9478 9.9283L21.9228 9.93968C21.919 9.94185 21.9103 9.94564 21.9065 9.94727C21.7457 10.0145 21.5893 10.0887 21.4318 10.1614C21.4275 10.1636 21.4188 10.1673 21.4145 10.1695L21.3906 10.1814C21.3705 10.1912 21.3308 10.2107 21.3113 10.2205L21.213 10.266C21.2086 10.2676 21.2005 10.272 21.1961 10.2736L21.1033 10.3175C21.0989 10.3197 21.0897 10.324 21.0848 10.3262L20.9952 10.369C20.9909 10.3712 20.9827 10.375 20.9784 10.3771L20.8871 10.4199C20.8828 10.4221 20.8736 10.4264 20.8687 10.4286L20.8035 10.4584C20.7753 10.4731 20.7182 10.5029 20.6894 10.5175C20.6324 10.5419 20.5759 10.5668 20.52 10.5929C20.5119 10.5972 20.495 10.6048 20.4869 10.6091C20.4217 10.64 20.3565 10.6715 20.2919 10.7034C20.2881 10.7051 20.2816 10.7083 20.2778 10.7105C20.1751 10.7658 20.0709 10.8173 19.9655 10.8666C19.9612 10.8688 19.953 10.8731 19.9492 10.8747L19.9253 10.8872C19.9063 10.8975 19.8688 10.9186 19.8504 10.9295C19.7179 10.9934 19.587 11.0601 19.4556 11.1246C19.3855 11.1311 19.3078 11.1506 19.2758 11.2206C19.045 11.3268 18.8207 11.4466 18.5964 11.5659C18.5779 11.5756 18.5415 11.5962 18.5236 11.6065L18.5014 11.6201C18.4965 11.6233 18.4862 11.6293 18.4813 11.632L18.4585 11.6455C18.4384 11.6547 18.3987 11.6726 18.3786 11.6813L18.2836 11.7312C18.2798 11.7333 18.2711 11.7377 18.2667 11.7404L18.1793 11.787C18.1755 11.7892 18.1684 11.793 18.1646 11.7951C17.9718 11.8987 17.7791 12.0011 17.5863 12.1047C17.5776 12.109 17.5607 12.1182 17.552 12.1225C17.2946 12.2575 17.0432 12.4022 16.789 12.5421C16.417 12.7372 16.0548 12.9508 15.6969 13.1687C16.0673 13.0186 16.4197 12.8256 16.7727 12.6386C17.1589 12.4396 17.5531 12.257 17.9436 12.0662C17.9469 12.064 17.9545 12.0607 17.9583 12.0586L18.0506 12.0136C18.0555 12.0114 18.0653 12.0071 18.0701 12.0044L18.1619 11.9605C18.1657 11.9583 18.1744 11.9545 18.1788 11.9523L18.2689 11.9095C18.2727 11.9079 18.2803 11.9041 18.2841 11.9025C18.4742 11.8136 18.6659 11.7274 18.856 11.6385C18.8647 11.6347 18.8815 11.6266 18.8897 11.6228C19.0808 11.535 19.272 11.4466 19.4637 11.3593C19.4675 11.3577 19.4746 11.3544 19.4784 11.3528L19.5701 11.3116C19.5745 11.3095 19.5832 11.3057 19.5875 11.304L19.6554 11.2742C19.6847 11.2601 19.7428 11.2325 19.7716 11.2189C19.8308 11.1951 19.8889 11.1707 19.9476 11.1458C19.953 11.143 19.9639 11.1382 19.9693 11.136C20.028 11.11 20.0872 11.084 20.1464 11.059C20.1746 11.0449 20.2311 11.0173 20.2593 11.0037C20.4516 10.9306 20.6368 10.8406 20.8268 10.7614C20.8453 10.7517 20.8833 10.7316 20.9023 10.7219L20.9268 10.7121C20.9306 10.7099 20.9393 10.7067 20.9436 10.7051C20.9789 10.6915 21.0495 10.665 21.0848 10.6514C21.0897 10.6498 21.0989 10.646 21.1038 10.6438C21.1641 10.6189 21.2249 10.5934 21.2858 10.5679C21.3151 10.5549 21.3726 10.5284 21.4014 10.5153C21.4916 10.4823 21.5801 10.446 21.6692 10.4096C21.698 10.3961 21.7561 10.3684 21.7854 10.3549L21.8516 10.3321C21.8554 10.3305 21.8631 10.3278 21.8674 10.3267L21.9347 10.3018C21.9641 10.2866 22.0216 10.2568 22.0504 10.2416L22.1275 10.2205C22.1471 10.2113 22.1862 10.1923 22.2063 10.1831L22.2302 10.1706C22.2351 10.1679 22.2443 10.163 22.2492 10.1603L22.2687 10.15C22.3106 10.1354 22.3942 10.1061 22.436 10.0915L22.5044 10.0665C22.5082 10.0649 22.5169 10.0616 22.5213 10.06L22.5919 10.0351C22.6196 10.0199 22.6755 9.99064 22.7037 9.97546L22.7521 9.97763C22.7798 9.96299 22.8357 9.93372 22.8634 9.91908C22.9161 9.90174 22.9688 9.88385 23.022 9.8665C23.0513 9.85241 23.1094 9.82477 23.1382 9.81067L23.2251 9.78032C23.23 9.82693 23.2267 9.87301 23.2159 9.91854C22.7499 11.9036 22.2883 13.8902 21.8245 15.8757C21.8039 16.0964 21.7409 16.3094 21.6963 16.5262C21.6295 16.8471 21.7115 17.2119 21.9614 17.4363C22.1574 17.6222 22.436 17.684 22.6994 17.6775C26.5015 17.677 30.3037 17.6781 34.1064 17.677C34.3317 17.6775 34.5685 17.6645 34.7803 17.7578C35.0546 17.87 35.2539 18.1329 35.2995 18.4245C35.3598 18.7579 35.2213 19.0809 35.1605 19.404C33.9125 24.7524 32.665 30.1009 31.4165 35.4494C31.2975 36.0213 30.8402 36.5037 30.2782 36.6614C30.0207 36.733 29.7508 36.7091 29.4869 36.7129C24.5736 36.7145 19.6608 36.7097 14.7481 36.7156C14.734 36.5536 14.7421 36.3909 14.7405 36.2289C16.0906 35.9275 17.4456 35.4732 18.5497 34.6157C19.4382 33.9381 20.1035 32.9673 20.381 31.8837C21.2901 27.9793 22.2036 24.0754 23.1127 20.171C23.2007 19.7997 23.0687 19.365 22.7336 19.1595C22.4838 18.9936 22.1732 19.0067 21.8859 19.0094C19.1536 19.0094 16.4208 19.0104 13.6885 19.0094C13.6 19.0153 13.5055 18.992 13.4219 19.0245C11.8676 20.3618 10.3904 21.7923 9.05657 23.3501C7.72927 24.8831 6.54263 26.545 5.59658 28.3398C4.48869 30.4484 3.71588 32.7819 3.68655 35.18C3.6431 37.4691 4.37301 39.762 5.73941 41.6017C6.96678 43.2767 8.64111 44.5814 10.4545 45.5734C12.4161 46.6325 14.5406 47.3724 16.7108 47.8733C16.7059 47.915 16.6967 47.9974 16.6923 48.0392C16.4919 48.8604 16.3068 49.6849 16.1129 50.5077C14.6884 50.3158 13.278 50.0199 11.8909 49.6453C9.96298 49.1108 8.07576 48.3937 6.34332 47.3871C4.57015 46.3599 2.95121 45.0085 1.80476 43.2984C0.495385 41.3779 -0.115586 39.0112 0.0527707 36.6977C0.202662 34.3577 1.03195 32.1098 2.15994 30.07C3.20592 28.1864 4.5115 26.4556 5.95284 24.856C7.90143 22.6899 10.108 20.7683 12.4286 19.0104C11.7481 19.0067 11.0671 19.0137 10.3866 19.0072C10.0542 19.0067 9.71859 18.8256 9.57359 18.521C9.43782 18.2586 9.45791 17.9496 9.53612 17.6737C10.8189 12.1816 12.0984 6.68789 13.3822 1.19578C13.5164 0.611981 14.0073 0.144729 14.5841 0Z" fill="#0093DD"/>
<path d="M63.6448 37.829C63.9354 37.6572 64.2037 37.4431 64.5105 37.3C63.5585 38.0209 62.5554 38.6746 61.5534 39.3245C56.1736 42.746 50.3154 45.388 44.254 47.354C38.9567 49.0615 33.4803 50.2453 27.9321 50.7402C27.9392 50.6969 27.9533 50.6107 27.9598 50.5679C28.0994 50.0025 28.2254 49.4344 28.3601 48.8685C31.5187 48.7411 34.6664 48.3758 37.7739 47.7958C42.5319 46.9095 47.1981 45.55 51.7062 43.7938C55.8543 42.1692 59.8699 40.1956 63.6448 37.829Z" fill="#0093DD"/>
<path d="M42.6632 0H58.0048C58.0032 0.155028 58.0113 0.310056 57.9956 0.464542C57.1386 0.652636 56.2941 0.916617 55.5055 1.30419C54.7235 1.67929 54.005 2.20454 53.4537 2.87723C56.6031 2.95475 59.7584 3.2995 62.8106 4.09632C65.0747 4.69421 67.2921 5.5409 69.2771 6.79467C71.009 7.88692 72.5606 9.32065 73.5973 11.0981C74.3956 12.4424 74.8605 13.9704 75.0001 15.5245V17.2233C74.841 19.3563 74.135 21.4166 73.1482 23.3046C72.1239 25.2663 70.8048 27.0616 69.3455 28.7214C66.5888 31.8312 63.3341 34.4688 59.8806 36.7698C59.8046 36.8208 59.7302 36.8772 59.6389 36.894C59.6596 36.8566 59.6878 36.8251 59.7226 36.8002C62.2034 34.9323 64.5376 32.8562 66.5806 30.515C68.0214 28.8531 69.32 27.0562 70.3247 25.0967C71.3321 23.129 72.043 20.9759 72.1391 18.7562C72.2027 17.3024 71.9881 15.8313 71.4641 14.4713C70.7559 12.5811 69.472 10.9409 67.9161 9.66811C66.251 8.29617 64.3013 7.30692 62.2821 6.56755C59.1502 5.43682 55.8352 4.88826 52.5207 4.66331C51.8435 7.56277 51.1679 10.4628 50.4907 13.3628C50.243 14.4523 49.9633 15.5359 49.7608 16.6341C49.7162 16.9875 49.8748 17.3724 50.1952 17.5485C50.4353 17.6933 50.7253 17.6786 50.9957 17.6775C54.7968 17.677 58.5978 17.677 62.3989 17.6775C62.671 17.6705 62.9583 17.7513 63.1478 17.9556C63.3944 18.2077 63.4427 18.5969 63.352 18.9264C62.079 24.3833 60.8055 29.8402 59.5325 35.2971C59.4315 36.0657 58.7407 36.7335 57.9478 36.7129C54.8163 36.7129 51.6855 36.714 48.5546 36.7124C48.2781 36.7173 47.9892 36.6218 47.8057 36.4083C47.5846 36.1627 47.539 35.8033 47.6178 35.4922C48.8093 30.3855 50.0019 25.2793 51.1929 20.1726C51.2809 19.8002 51.1483 19.3639 50.8116 19.1584C50.5455 18.9823 50.2148 19.0099 49.9117 19.0099C46.1275 19.0099 42.3433 19.0099 38.5591 19.0094C38.2881 19.017 38.003 18.9411 37.8113 18.741C37.5625 18.496 37.5044 18.1128 37.5902 17.7849C38.5694 13.5872 39.5502 9.39004 40.5283 5.19181C34.6076 6.04121 28.7955 7.60992 23.2251 9.78032L23.1382 9.81067C23.1094 9.82477 23.0513 9.85241 23.022 9.8665C22.9688 9.88385 22.9161 9.90174 22.8634 9.91908L22.8156 9.90878C22.7993 9.92613 22.7678 9.96028 22.7521 9.97763L22.7037 9.97546C22.6755 9.99064 22.6196 10.0199 22.5919 10.0351L22.5213 10.06C22.5169 10.0616 22.5082 10.0649 22.5044 10.0665L22.436 10.0915C22.3942 10.1061 22.3105 10.1354 22.2687 10.15L22.2492 10.1603C22.2443 10.163 22.2351 10.1679 22.2302 10.1706L22.2063 10.1831C22.1862 10.1923 22.1471 10.2113 22.1275 10.2205L22.0504 10.2416C22.0216 10.2568 21.9641 10.2866 21.9347 10.3018L21.8674 10.3267C21.863 10.3278 21.8554 10.3305 21.8516 10.3321L21.7854 10.3549C21.7561 10.3684 21.6979 10.3961 21.6692 10.4096C21.5801 10.446 21.4916 10.4823 21.4014 10.5153L21.3542 10.5034C21.3373 10.5191 21.3031 10.5517 21.2857 10.5679C21.2249 10.5934 21.1641 10.6189 21.1038 10.6438C21.0989 10.646 21.0897 10.6498 21.0848 10.6514C21.0495 10.665 20.9789 10.6915 20.9436 10.7051C20.9393 10.7067 20.9306 10.7099 20.9268 10.7121L20.9023 10.7219C20.8833 10.7316 20.8453 10.7517 20.8268 10.7614C20.6368 10.8406 20.4516 10.9306 20.2593 11.0037L20.2121 10.9929C20.1952 11.0092 20.1626 11.0422 20.1464 11.059C20.0872 11.084 20.028 11.11 19.9693 11.136C19.9639 11.1382 19.953 11.143 19.9476 11.1458C19.8889 11.1707 19.8308 11.1951 19.7716 11.2189L19.7244 11.2081C19.707 11.2244 19.6728 11.2574 19.6554 11.2742L19.5875 11.304C19.5832 11.3057 19.5745 11.3095 19.5701 11.3116L19.4784 11.3528C19.4746 11.3544 19.4675 11.3577 19.4637 11.3593C19.272 11.4466 19.0808 11.535 18.8897 11.6228C18.8815 11.6266 18.8647 11.6347 18.856 11.6385C18.6659 11.7274 18.4742 11.8136 18.2841 11.9025C18.2803 11.9041 18.2727 11.9079 18.2689 11.9095L18.1788 11.9523C18.1744 11.9545 18.1657 11.9583 18.1619 11.9605L18.0701 12.0044C18.0653 12.0071 18.0555 12.0114 18.0506 12.0136L17.9583 12.0586C17.9545 12.0607 17.9469 12.064 17.9436 12.0662C17.5531 12.257 17.1588 12.4396 16.7727 12.6386L16.688 12.6424C16.713 12.6174 16.7635 12.5676 16.789 12.5421C17.0432 12.4022 17.2946 12.2575 17.552 12.1225C17.5607 12.1182 17.5776 12.109 17.5863 12.1047C17.779 12.0011 17.9718 11.8987 18.1646 11.7951C18.1684 11.793 18.1755 11.7892 18.1793 11.787L18.2667 11.7404C18.2711 11.7377 18.2798 11.7333 18.2836 11.7312L18.3786 11.6813C18.3987 11.6726 18.4384 11.6547 18.4584 11.6455L18.4813 11.632C18.4861 11.6293 18.4965 11.6233 18.5013 11.6201L18.5236 11.6065C18.5415 11.5962 18.5779 11.5756 18.5964 11.5659C18.8207 11.4466 19.045 11.3268 19.2758 11.2206C19.3572 11.2791 19.4387 11.2059 19.4555 11.1246C19.587 11.0601 19.7179 10.9934 19.8504 10.9295C19.8688 10.9186 19.9063 10.8975 19.9253 10.8872L19.9492 10.8747C19.953 10.8731 19.9612 10.8688 19.9655 10.8666C20.0709 10.8173 20.1751 10.7658 20.2778 10.7105C20.2816 10.7083 20.2881 10.7051 20.2919 10.7034C20.3565 10.6715 20.4217 10.64 20.4869 10.6091C20.495 10.6048 20.5118 10.5972 20.52 10.5929C20.5759 10.5668 20.6324 10.5419 20.6894 10.5175L20.7372 10.5267C20.7541 10.5094 20.7872 10.4758 20.8035 10.4584L20.8687 10.4286C20.8735 10.4264 20.8828 10.4221 20.8871 10.4199L20.9784 10.3771C20.9827 10.375 20.9908 10.3712 20.9952 10.369L21.0848 10.3262C21.0897 10.324 21.0989 10.3197 21.1033 10.3175L21.1961 10.2736C21.2005 10.272 21.2086 10.2676 21.213 10.266L21.3113 10.2205C21.3308 10.2107 21.3705 10.1912 21.3906 10.1814L21.4145 10.1695C21.4188 10.1673 21.4275 10.1636 21.4318 10.1614C21.5893 10.0887 21.7457 10.0145 21.9065 9.94727C21.9103 9.94564 21.919 9.94185 21.9228 9.93968L21.9478 9.9283C21.9673 9.91746 22.0064 9.89632 22.026 9.88548L22.1221 9.83994C22.1264 9.83832 22.1351 9.83398 22.1389 9.83181L22.2313 9.78899C22.2345 9.78736 22.2416 9.78411 22.2448 9.78249C22.3659 9.72611 22.4892 9.67462 22.6125 9.62312C22.6168 9.6215 22.6255 9.6177 22.6299 9.61553L22.6543 9.60469C22.6744 9.59493 22.7135 9.57596 22.7331 9.56675C22.852 9.51417 22.9704 9.46159 23.0899 9.40955C23.098 9.40576 23.1154 9.39817 23.1241 9.39437L23.1654 9.37649C28.8189 6.90742 34.7488 5.06064 40.82 3.94617C41.0339 3.02901 41.2468 2.11185 41.4624 1.19523C41.5966 0.611981 42.087 0.145271 42.6632 0Z" fill="#EB891B"/>
<path d="M23.0894 9.40956C23.0975 9.40576 23.1149 9.39817 23.1236 9.39438C23.1149 9.39817 23.0975 9.40576 23.0894 9.40956Z" fill="#68B92E"/>
<path d="M22.6538 9.60469C22.6739 9.59493 22.713 9.57596 22.7326 9.56674C22.713 9.57596 22.6739 9.59493 22.6538 9.60469Z" fill="#68B92E"/>
<path d="M22.6123 9.62313C22.6166 9.6215 22.6253 9.61771 22.6297 9.61554C22.6253 9.61771 22.6166 9.6215 22.6123 9.62313Z" fill="#68B92E"/>
<path d="M22.231 9.78916C22.2343 9.7875 22.2415 9.78417 22.2449 9.7825C22.2415 9.78417 22.2343 9.7875 22.231 9.78916Z" fill="#68B92E"/>
<path d="M22.1216 9.83995C22.1259 9.83832 22.1346 9.83399 22.1384 9.83182C22.1346 9.83399 22.1259 9.83832 22.1216 9.83995Z" fill="#68B92E"/>
<path d="M23.0215 9.8665C23.0508 9.85241 23.1089 9.82476 23.1377 9.81067C23.1089 9.82476 23.0508 9.85241 23.0215 9.8665Z" fill="#68B92E"/>
<path d="M21.9473 9.92829C21.9668 9.91745 22.0059 9.89631 22.0255 9.88547C22.0059 9.89631 21.9668 9.91745 21.9473 9.92829Z" fill="#68B92E"/>
<path d="M21.9062 9.94729C21.9101 9.94566 21.9187 9.94187 21.9225 9.9397C21.9187 9.94187 21.9101 9.94566 21.9062 9.94729Z" fill="#68B92E"/>
<path d="M22.752 9.97762C22.7677 9.96028 22.7992 9.92613 22.8155 9.90878L22.8633 9.91908C22.8356 9.93372 22.7796 9.96299 22.752 9.97762Z" fill="#68B92E"/>
<path d="M22.5918 10.0351C22.6195 10.0199 22.6754 9.99064 22.7037 9.97546C22.6754 9.99064 22.6195 10.0199 22.5918 10.0351Z" fill="#68B92E"/>
<path d="M22.5039 10.0665C22.5077 10.0649 22.5164 10.0617 22.5207 10.06C22.5164 10.0617 22.5077 10.0649 22.5039 10.0665Z" fill="#68B92E"/>
<path d="M22.2686 10.15C22.3104 10.1354 22.394 10.1061 22.4358 10.0915C22.394 10.1061 22.3104 10.1354 22.2686 10.15Z" fill="#68B92E"/>
<path d="M21.4141 10.1695C21.4184 10.1673 21.4271 10.1635 21.4314 10.1614C21.4271 10.1635 21.4184 10.1673 21.4141 10.1695Z" fill="#68B92E"/>
<path d="M22.23 10.1706C22.2349 10.1679 22.2441 10.163 22.249 10.1603C22.2441 10.163 22.2349 10.1679 22.23 10.1706Z" fill="#68B92E"/>
<path d="M21.311 10.2205C21.3306 10.2107 21.3702 10.1912 21.3903 10.1815C21.3702 10.1912 21.3306 10.2107 21.311 10.2205Z" fill="#68B92E"/>
<path d="M22.1274 10.2205C22.147 10.2113 22.1861 10.1923 22.2062 10.1831C22.1861 10.1923 22.147 10.2113 22.1274 10.2205Z" fill="#68B92E"/>
<path d="M21.1958 10.2736C21.2001 10.272 21.2083 10.2676 21.2126 10.266C21.2083 10.2676 21.2001 10.272 21.1958 10.2736Z" fill="#68B92E"/>
<path d="M21.9346 10.3018C21.9639 10.2866 22.0215 10.2568 22.0502 10.2416C22.0215 10.2568 21.9639 10.2866 21.9346 10.3018Z" fill="#68B92E"/>
<path d="M21.0845 10.3262C21.0894 10.324 21.0986 10.3197 21.1029 10.3175C21.0986 10.3197 21.0894 10.324 21.0845 10.3262Z" fill="#68B92E"/>
<path d="M21.8516 10.3321C21.8554 10.3305 21.863 10.3278 21.8673 10.3267C21.863 10.3278 21.8554 10.3305 21.8516 10.3321Z" fill="#68B92E"/>
<path d="M20.978 10.3771C20.9824 10.375 20.9905 10.3712 20.9949 10.369C20.9905 10.3712 20.9824 10.375 20.978 10.3771Z" fill="#68B92E"/>
<path d="M21.6689 10.4096C21.6977 10.3961 21.7558 10.3684 21.7852 10.3549C21.7558 10.3684 21.6977 10.3961 21.6689 10.4096Z" fill="#68B92E"/>
<path d="M20.8682 10.4286C20.8731 10.4265 20.8823 10.4221 20.8866 10.42C20.8823 10.4221 20.8731 10.4265 20.8682 10.4286Z" fill="#68B92E"/>
<path d="M20.689 10.5175C20.7177 10.5029 20.7748 10.4731 20.803 10.4584C20.7867 10.4758 20.7536 10.5094 20.7368 10.5267L20.689 10.5175Z" fill="#68B92E"/>
<path d="M21.2856 10.5679C21.303 10.5517 21.3372 10.5191 21.3541 10.5034L21.4013 10.5153C21.3725 10.5284 21.315 10.5549 21.2856 10.5679Z" fill="#68B92E"/>
<path d="M20.4863 10.6091C20.4945 10.6048 20.5113 10.5972 20.5195 10.5929C20.5113 10.5972 20.4945 10.6048 20.4863 10.6091Z" fill="#68B92E"/>
<path d="M21.0845 10.6514C21.0894 10.6498 21.0986 10.646 21.1035 10.6438C21.0986 10.646 21.0894 10.6498 21.0845 10.6514Z" fill="#68B92E"/>
<path d="M20.2773 10.7106C20.2812 10.7084 20.2879 10.7051 20.2918 10.7034C20.2879 10.7051 20.2812 10.7084 20.2773 10.7106Z" fill="#68B92E"/>
<path d="M20.9263 10.7121C20.9301 10.71 20.9388 10.7067 20.9431 10.7051C20.9388 10.7067 20.9301 10.71 20.9263 10.7121Z" fill="#68B92E"/>
<path d="M20.8267 10.7614C20.8451 10.7517 20.8831 10.7316 20.9021 10.7219C20.8831 10.7316 20.8451 10.7517 20.8267 10.7614Z" fill="#68B92E"/>
<path d="M19.9487 10.8747C19.9525 10.8731 19.9607 10.8688 19.965 10.8666C19.9607 10.8688 19.9525 10.8731 19.9487 10.8747Z" fill="#68B92E"/>
<path d="M19.8501 10.9295C19.8686 10.9186 19.906 10.8975 19.925 10.8872C19.906 10.8975 19.8686 10.9186 19.8501 10.9295Z" fill="#68B92E"/>
<path d="M20.146 11.059C20.1623 11.0422 20.1949 11.0092 20.2117 10.9929L20.259 11.0037C20.2307 11.0173 20.1742 11.0449 20.146 11.059Z" fill="#68B92E"/>
<path d="M19.2754 11.2206C19.3074 11.1507 19.3851 11.1311 19.4552 11.1246C19.4383 11.2059 19.3569 11.2791 19.2754 11.2206Z" fill="#68B92E"/>
<path d="M19.9473 11.1458C19.9527 11.1431 19.9636 11.1382 19.969 11.136C19.9636 11.1382 19.9527 11.1431 19.9473 11.1458Z" fill="#68B92E"/>
<path d="M19.6553 11.2742C19.6727 11.2574 19.7069 11.2244 19.7242 11.2081L19.7715 11.2189C19.7427 11.2325 19.6846 11.2601 19.6553 11.2742Z" fill="#68B92E"/>
<path d="M19.5698 11.3116C19.5742 11.3095 19.5829 11.3057 19.5872 11.304C19.5829 11.3057 19.5742 11.3095 19.5698 11.3116Z" fill="#68B92E"/>
<path d="M19.4634 11.3595C19.4673 11.3578 19.4745 11.3545 19.4784 11.3528C19.4745 11.3545 19.4673 11.3578 19.4634 11.3595Z" fill="#68B92E"/>
<path d="M18.5234 11.6065C18.5414 11.5962 18.5777 11.5756 18.5962 11.5659C18.5777 11.5756 18.5414 11.5962 18.5234 11.6065Z" fill="#68B92E"/>
<path d="M18.481 11.632C18.4858 11.6293 18.4962 11.6233 18.5011 11.6201C18.4962 11.6233 18.4858 11.6293 18.481 11.632Z" fill="#68B92E"/>
<path d="M18.8555 11.6385C18.8642 11.6347 18.881 11.6266 18.8891 11.6228C18.881 11.6266 18.8642 11.6347 18.8555 11.6385Z" fill="#68B92E"/>
<path d="M18.3784 11.6813C18.3985 11.6726 18.4382 11.6548 18.4583 11.6455C18.4382 11.6548 18.3985 11.6726 18.3784 11.6813Z" fill="#68B92E"/>
<path d="M18.2666 11.7404C18.2709 11.7377 18.2796 11.7333 18.2834 11.7312C18.2796 11.7333 18.2709 11.7377 18.2666 11.7404Z" fill="#68B92E"/>
<path d="M18.1646 11.7953C18.1684 11.7931 18.1757 11.7892 18.1796 11.787C18.1757 11.7892 18.1684 11.7931 18.1646 11.7953Z" fill="#68B92E"/>
<path d="M18.2686 11.9095C18.2724 11.9079 18.28 11.9041 18.2838 11.9025C18.28 11.9041 18.2724 11.9079 18.2686 11.9095Z" fill="#68B92E"/>
<path d="M18.1616 11.9605C18.1654 11.9583 18.1741 11.9545 18.1785 11.9523C18.1741 11.9545 18.1654 11.9583 18.1616 11.9605Z" fill="#68B92E"/>
<path d="M18.0503 12.0136C18.0552 12.0114 18.065 12.0071 18.0698 12.0044C18.065 12.0071 18.0552 12.0114 18.0503 12.0136Z" fill="#68B92E"/>
<path d="M17.9434 12.0664C17.9467 12.0641 17.9545 12.0608 17.9584 12.0586C17.9545 12.0608 17.9467 12.0641 17.9434 12.0664Z" fill="#68B92E"/>
<path d="M17.5518 12.1226C17.5604 12.1182 17.5773 12.109 17.586 12.1047C17.5773 12.109 17.5604 12.1182 17.5518 12.1226Z" fill="#68B92E"/>
<path d="M15.6968 13.1687C16.0547 12.9508 16.4169 12.7373 16.7889 12.5421C16.7634 12.5676 16.7129 12.6175 16.6879 12.6424L16.7726 12.6386C16.4196 12.8256 16.0672 13.0186 15.6968 13.1687Z" fill="#68B92E"/>
<path d="M36.6895 22.4932C36.8345 21.7901 37.5041 21.2188 38.2313 21.2329C41.3622 21.2329 44.4925 21.2323 47.6234 21.2334C47.9514 21.2215 48.2958 21.3668 48.4668 21.6557C48.6222 21.9056 48.6308 22.2189 48.5575 22.497C47.2704 28.0064 45.9866 33.517 44.6995 39.0264C44.5485 39.717 43.8903 40.2775 43.1739 40.2688C39.4625 40.2699 35.751 40.2688 32.0396 40.2694C31.7214 40.2737 31.3901 40.2395 31.0876 40.3604C30.6053 40.5447 30.211 40.9648 30.0883 41.4695C29.5105 43.9353 28.9391 46.4027 28.3597 48.8685C28.225 49.4344 28.099 50.0025 27.9594 50.5679C27.5021 52.5805 27.0226 54.5894 26.5577 56.601C26.4464 57.3333 25.7903 57.9648 25.0354 57.9713C21.8872 57.9745 18.7389 57.9724 15.5906 57.9724C15.3131 57.9772 15.0231 57.8807 14.8396 57.6656C14.6191 57.4189 14.5745 57.0585 14.6549 56.7468C15.141 54.6669 15.6227 52.5865 16.1126 50.5077C16.3064 49.6849 16.4916 48.8604 16.692 48.0392C17.2883 45.4281 17.9074 42.8224 18.5124 40.2135C18.652 39.5121 19.3086 38.9343 20.0336 38.937C23.8912 38.9348 27.7492 38.937 31.6068 38.9359C32.1694 38.9467 32.7005 38.6025 32.9753 38.1223C33.1008 37.9103 33.1491 37.6659 33.204 37.429C34.3662 32.4507 35.5273 27.472 36.6895 22.4932Z" fill="#68B92E"/>
</g>
<defs>
<clipPath id="clip0_76_1309">
<rect width="75" height="58" fill="white"/>
</clipPath>
</defs>
</svg>
